<?xml version="1.0" encoding="utf-8"?>
<!-- Generator: Adobe Illustrator 24.1.3, SVG Export Plug-In . SVG Version: 6.00 Build 0)  -->
<svg version="1.1" id="Layer_1" xmlns="http://www.w3.org/2000/svg" xmlns:xlink="http://www.w3.org/1999/xlink" x="0px" y="0px"
	 viewBox="0 0 138.8110657 171.0190735" style="enable-background:new 0 0 138.8110657 171.0190735;" xml:space="preserve">
<style type="text/css">
	.st0{fill:#FFFFFF;}
</style>
<g>
	<g>
		<circle class="st0" cx="36.3239517" cy="76.3942108" r="7"/>
		<path class="st0" d="M72.8745117,58.6818199c-0.2091827,0-0.4169998-0.0108109-0.6231003-0.0293884
			c1.8463287,3.982708,2.9659958,8.26334,3.3061981,12.6400032h14.9655838
			c2.1539536-3.7998352,5.6450806-6.6619644,9.7935104-8.0289993v-4.5833244H72.9032211L72.8745117,58.6818199z"/>
		<path class="st0" d="M43.5230446,27.7440796V37.39048c8.0478706,1.0923386,15.5138435,4.7988777,21.2491646,10.5493088
			l-4.8879967-20.1957092H43.5230446z"/>
		<circle class="st0" cx="105.7541733" cy="79.8942108" r="3.5"/>
		<path class="st0" d="M123.0027847,0H15.8082714C7.8691969,0.0232533,1.4390955,6.4533954,1.4158921,14.3924704v82.5774384
			c0.023208,7.9390717,6.4533062,14.3692093,14.3923798,14.3924713h107.1945114
			c7.9390793-0.0232544,14.3691788-6.453392,14.3923874-14.3924713V14.3924704
			C137.3719635,6.4533916,130.941864,0.0232492,123.0027847,0z M36.3239517,97.3942108
			c-11.5979824,0-21.0000019-9.4020233-21.0000019-21s9.4020195-21,21.0000019-21s21,9.4020233,21,21l0,0
			C57.3108292,87.9867554,47.9164925,97.3810883,36.3239517,97.3942108z M105.7541733,97.3942108
			c-7.5813675-0.0099869-14.2970352-4.8928909-16.6441422-12.1017914H68.6738205
			c-3.8627625-0.0000763-6.9953957-3.1290436-7-6.9917984l-0.0047798-4.1080017
			C61.6582718,61.4186592,51.308136,51.0646782,38.5341835,51.04916H27.0245113c-3.8659935,0-7-3.1340065-7-7s3.1340065-7,7-7
			h2.4985294v-9.3050804h-2.4985294c-3.8659935,0-7-3.1340065-7-7s3.1340065-7,7-7h38.3673782
			c3.2316513,0.0001955,6.0432434,2.2123499,6.8038177,5.35322l6.1923294,25.5828075h26.4150925
			c5.25177,0.0058708,9.5077133,4.2618065,9.5135803,9.5135803v10.4468918
			c8.4273148,4.7259903,11.4278336,15.3888474,6.7018433,23.8161621
			C117.9221725,93.9781647,112.0845642,97.3961563,105.7541733,97.3942108z"/>
	</g>
	<g>
		<g>
			<path class="st0" d="M0,132.3616791h15.8508854c7.5263748,0,12.6008854,3.6490479,12.6008854,10.7188263
				c0,5.7594147-3.9339523,9.2376862-7.7546844,10.4348602c1.1405582,0.9688721,1.9962101,2.2801819,2.6801739,3.6490479
				c1.5962238,3.2499847,2.6792431,6.8414917,6.0433807,6.8414917c0.8556519,0,1.5396156-0.2849121,1.5396156-0.2849121
				l-0.7415028,6.7848816c0,0-2.0518913,0.5131989-3.8198032,0.5131989c-4.561306,0-7.183939-1.7679138-9.8641014-7.8688202
				c-1.1396408-2.7358551-2.736784-7.5263824-4.8462133-7.5263824H9.5216665v15.2235107H0V132.3616791z M9.5216665,139.2607117
				v9.4641266h3.4216766c2.7367725,0,5.9292212-0.8547211,5.9292212-4.9594269c0-3.3641357-2.1660385-4.5046997-4.7895918-4.5046997
				H9.5216665z"/>
			<path class="st0" d="M34.9517479,132.3616791h9.521656v10.7763672c0,1.1971741-0.1707611,2.9641571-0.2849083,4.2763977
				h0.2282982c0.6273537-0.9688721,1.4254646-2.4518738,2.3943367-3.5924225l9.4084473-11.4603424h10.2622261l-12.5433426,15.109375
				l13.228241,23.3763275H56.2195778l-8.8952446-16.1348419l-2.8509293,3.4782715v12.6565704h-9.521656V132.3616791z"/>
			<path class="st0" d="M70.1893234,132.3616943h25.4857559v7.0697784H79.7109756v8.2678833h13.3989944v7.0697784H79.7109756
				v9.0084534h16.5348511v7.0697937H70.1893234V132.3616943z"/>
		</g>
		<g>
			<path class="st0" d="M138.8110657,170.7145538h-28.4214783v-6.7473297l9.563118-9.3683929
				c2.7323227-2.7681274,4.5181503-4.6582336,5.3574905-5.6703339s1.4241943-1.8814697,1.7545776-2.6081085
				c0.3303757-0.7266235,0.4955673-1.4878693,0.4955673-2.2837067c0-0.986145-0.3303833-1.764679-0.9911346-2.3356018
				c-0.660759-0.5709381-1.5893936-0.8563995-2.7858963-0.8563995c-1.2322235,0-2.4778366,0.3416901-3.7368469,1.0250854
				c-1.2590103,0.6833801-2.6832123,1.6911469-4.2725983,3.0233154l-5.8128738-6.5916138
				c2.0179901-1.7473907,3.7145233-2.9973755,5.0896149-3.7499542c1.3750916-0.752594,2.8707199-1.3278351,4.4868927-1.7257538
				c1.6161804-0.3979187,3.4332581-0.5968781,5.4512482-0.5968781c2.5358734,0,4.7994156,0.4325104,6.7906113,1.2975616
				c1.9911957,0.865036,3.5359497,2.0977173,4.6342316,3.6980438s1.6474304,3.3952942,1.6474304,5.3848724
				c0,1.4878845-0.1919861,2.8632965-0.575943,4.1262512c-0.3839417,1.26297-0.9777374,2.504303-1.7813568,3.723999
				c-0.8036194,1.2197113-1.8706512,2.504303-3.2010956,3.8537598c-1.3304443,1.349472-4.165451,3.9099884-8.5050125,7.6815643
				v0.2595215h14.8134537V170.7145538z"/>
		</g>
	</g>
</g>
</svg>
